# Blender 4.0.0
# www.blender.org
mtllib trailer_chassis_open.mtl
o Cube
v -0.510000 0.610000 -0.100000
v -0.510000 0.610000 0.100000
v 0.510000 0.610000 -0.100000
v 0.510000 0.610000 0.100000
v -0.510000 -0.610000 -0.100000
v -0.510000 -0.610000 0.100000
v 0.510000 -0.610000 -0.100000
v 0.510000 -0.610000 0.100000
vn -0.0000 1.0000 -0.0000
vn 1.0000 -0.0000 -0.0000
vn -0.0000 -1.0000 -0.0000
vn -0.0000 -0.0000 -1.0000
vt 0.375000 0.000000
vt 0.625000 0.000000
vt 0.625000 0.250000
vt 0.375000 0.250000
vt 0.625000 0.500000
vt 0.375000 0.500000
vt 0.625000 0.750000
vt 0.375000 0.750000
vt 0.125000 0.500000
vt 0.125000 0.750000
s 0
f 1/1/1 2/2/1 4/3/1 3/4/1
f 3/4/2 4/3/2 8/5/2 7/6/2
f 7/6/3 8/5/3 6/7/3 5/8/3
f 3/9/4 7/6/4 5/8/4 1/10/4
