# lugged wheel: R_tip=0.4089 R_barrel=0.3889 width=0.300 lugs=10 lug_h=0.020 lug_arc=0.035 seg=60
# spin axis +Y; generated by tools/make_lugged_wheel.py
v 0.388900 -0.150000 0.000000
v 0.388900 0.150000 0.000000
v 0.386770 -0.150000 0.040651
v 0.386770 0.150000 0.040651
v 0.380402 -0.150000 0.080857
v 0.380402 0.150000 0.080857
v 0.369866 -0.150000 0.120177
v 0.369866 0.150000 0.120177
v 0.355278 -0.150000 0.158180
v 0.355278 0.150000 0.158180
v 0.336797 -0.150000 0.194450
v 0.336797 0.150000 0.194450
v 0.314627 -0.150000 0.228590
v 0.314627 0.150000 0.228590
v 0.289009 -0.150000 0.260225
v 0.289009 0.150000 0.260225
v 0.260225 -0.150000 0.289009
v 0.260225 0.150000 0.289009
v 0.228590 -0.150000 0.314627
v 0.228590 0.150000 0.314627
v 0.194450 -0.150000 0.336797
v 0.194450 0.150000 0.336797
v 0.158180 -0.150000 0.355278
v 0.158180 0.150000 0.355278
v 0.120177 -0.150000 0.369866
v 0.120177 0.150000 0.369866
v 0.080857 -0.150000 0.380402
v 0.080857 0.150000 0.380402
v 0.040651 -0.150000 0.386770
v 0.040651 0.150000 0.386770
v 0.000000 -0.150000 0.388900
v 0.000000 0.150000 0.388900
v -0.040651 -0.150000 0.386770
v -0.040651 0.150000 0.386770
v -0.080857 -0.150000 0.380402
v -0.080857 0.150000 0.380402
v -0.120177 -0.150000 0.369866
v -0.120177 0.150000 0.369866
v -0.158180 -0.150000 0.355278
v -0.158180 0.150000 0.355278
v -0.194450 -0.150000 0.336797
v -0.194450 0.150000 0.336797
v -0.228590 -0.150000 0.314627
v -0.228590 0.150000 0.314627
v -0.260225 -0.150000 0.289009
v -0.260225 0.150000 0.289009
v -0.289009 -0.150000 0.260225
v -0.289009 0.150000 0.260225
v -0.314627 -0.150000 0.228590
v -0.314627 0.150000 0.228590
v -0.336797 -0.150000 0.194450
v -0.336797 0.150000 0.194450
v -0.355278 -0.150000 0.158180
v -0.355278 0.150000 0.158180
v -0.369866 -0.150000 0.120177
v -0.369866 0.150000 0.120177
v -0.380402 -0.150000 0.080857
v -0.380402 0.150000 0.080857
v -0.386770 -0.150000 0.040651
v -0.386770 0.150000 0.040651
v -0.388900 -0.150000 0.000000
v -0.388900 0.150000 0.000000
v -0.386770 -0.150000 -0.040651
v -0.386770 0.150000 -0.040651
v -0.380402 -0.150000 -0.080857
v -0.380402 0.150000 -0.080857
v -0.369866 -0.150000 -0.120177
v -0.369866 0.150000 -0.120177
v -0.355278 -0.150000 -0.158180
v -0.355278 0.150000 -0.158180
v -0.336797 -0.150000 -0.194450
v -0.336797 0.150000 -0.194450
v -0.314627 -0.150000 -0.228590
v -0.314627 0.150000 -0.228590
v -0.289009 -0.150000 -0.260225
v -0.289009 0.150000 -0.260225
v -0.260225 -0.150000 -0.289009
v -0.260225 0.150000 -0.289009
v -0.228590 -0.150000 -0.314627
v -0.228590 0.150000 -0.314627
v -0.194450 -0.150000 -0.336797
v -0.194450 0.150000 -0.336797
v -0.158180 -0.150000 -0.355278
v -0.158180 0.150000 -0.355278
v -0.120177 -0.150000 -0.369866
v -0.120177 0.150000 -0.369866
v -0.080857 -0.150000 -0.380402
v -0.080857 0.150000 -0.380402
v -0.040651 -0.150000 -0.386770
v -0.040651 0.150000 -0.386770
v -0.000000 -0.150000 -0.388900
v -0.000000 0.150000 -0.388900
v 0.040651 -0.150000 -0.386770
v 0.040651 0.150000 -0.386770
v 0.080857 -0.150000 -0.380402
v 0.080857 0.150000 -0.380402
v 0.120177 -0.150000 -0.369866
v 0.120177 0.150000 -0.369866
v 0.158180 -0.150000 -0.355278
v 0.158180 0.150000 -0.355278
v 0.194450 -0.150000 -0.336797
v 0.194450 0.150000 -0.336797
v 0.228590 -0.150000 -0.314627
v 0.228590 0.150000 -0.314627
v 0.260225 -0.150000 -0.289009
v 0.260225 0.150000 -0.289009
v 0.289009 -0.150000 -0.260225
v 0.289009 0.150000 -0.260225
v 0.314627 -0.150000 -0.228590
v 0.314627 0.150000 -0.228590
v 0.336797 -0.150000 -0.194450
v 0.336797 0.150000 -0.194450
v 0.355278 -0.150000 -0.158180
v 0.355278 0.150000 -0.158180
v 0.369866 -0.150000 -0.120177
v 0.369866 0.150000 -0.120177
v 0.380402 -0.150000 -0.080857
v 0.380402 0.150000 -0.080857
v 0.386770 -0.150000 -0.040651
v 0.386770 0.150000 -0.040651
v 0.000000 -0.150000 0.000000
v 0.000000 0.150000 0.000000
v 0.388900 -0.150000 -0.017500
v 0.388900 0.150000 -0.017500
v 0.388900 -0.150000 0.017500
v 0.388900 0.150000 0.017500
v 0.408900 -0.150000 -0.017500
v 0.408900 0.150000 -0.017500
v 0.408900 -0.150000 0.017500
v 0.408900 0.150000 0.017500
v 0.324913 -0.150000 0.214432
v 0.324913 0.150000 0.214432
v 0.304340 -0.150000 0.242747
v 0.304340 0.150000 0.242747
v 0.341093 -0.150000 0.226188
v 0.341093 0.150000 0.226188
v 0.320521 -0.150000 0.254503
v 0.320521 0.150000 0.254503
v 0.136820 -0.150000 0.364458
v 0.136820 0.150000 0.364458
v 0.103533 -0.150000 0.375274
v 0.103533 0.150000 0.375274
v 0.143001 -0.150000 0.383479
v 0.143001 0.150000 0.383479
v 0.109714 -0.150000 0.394295
v 0.109714 0.150000 0.394295
v -0.103533 -0.150000 0.375274
v -0.103533 0.150000 0.375274
v -0.136820 -0.150000 0.364458
v -0.136820 0.150000 0.364458
v -0.109714 -0.150000 0.394295
v -0.109714 0.150000 0.394295
v -0.143001 -0.150000 0.383479
v -0.143001 0.150000 0.383479
v -0.304340 -0.150000 0.242747
v -0.304340 0.150000 0.242747
v -0.324913 -0.150000 0.214432
v -0.324913 0.150000 0.214432
v -0.320521 -0.150000 0.254503
v -0.320521 0.150000 0.254503
v -0.341093 -0.150000 0.226188
v -0.341093 0.150000 0.226188
v -0.388900 -0.150000 0.017500
v -0.388900 0.150000 0.017500
v -0.388900 -0.150000 -0.017500
v -0.388900 0.150000 -0.017500
v -0.408900 -0.150000 0.017500
v -0.408900 0.150000 0.017500
v -0.408900 -0.150000 -0.017500
v -0.408900 0.150000 -0.017500
v -0.324913 -0.150000 -0.214432
v -0.324913 0.150000 -0.214432
v -0.304340 -0.150000 -0.242747
v -0.304340 0.150000 -0.242747
v -0.341093 -0.150000 -0.226188
v -0.341093 0.150000 -0.226188
v -0.320521 -0.150000 -0.254503
v -0.320521 0.150000 -0.254503
v -0.136820 -0.150000 -0.364458
v -0.136820 0.150000 -0.364458
v -0.103533 -0.150000 -0.375274
v -0.103533 0.150000 -0.375274
v -0.143001 -0.150000 -0.383479
v -0.143001 0.150000 -0.383479
v -0.109714 -0.150000 -0.394295
v -0.109714 0.150000 -0.394295
v 0.103533 -0.150000 -0.375274
v 0.103533 0.150000 -0.375274
v 0.136820 -0.150000 -0.364458
v 0.136820 0.150000 -0.364458
v 0.109714 -0.150000 -0.394295
v 0.109714 0.150000 -0.394295
v 0.143001 -0.150000 -0.383479
v 0.143001 0.150000 -0.383479
v 0.304340 -0.150000 -0.242747
v 0.304340 0.150000 -0.242747
v 0.324913 -0.150000 -0.214432
v 0.324913 0.150000 -0.214432
v 0.320521 -0.150000 -0.254503
v 0.320521 0.150000 -0.254503
v 0.341093 -0.150000 -0.226188
v 0.341093 0.150000 -0.226188
f 1 2 4
f 1 4 3
f 121 3 1
f 122 2 4
f 3 4 6
f 3 6 5
f 121 5 3
f 122 4 6
f 5 6 8
f 5 8 7
f 121 7 5
f 122 6 8
f 7 8 10
f 7 10 9
f 121 9 7
f 122 8 10
f 9 10 12
f 9 12 11
f 121 11 9
f 122 10 12
f 11 12 14
f 11 14 13
f 121 13 11
f 122 12 14
f 13 14 16
f 13 16 15
f 121 15 13
f 122 14 16
f 15 16 18
f 15 18 17
f 121 17 15
f 122 16 18
f 17 18 20
f 17 20 19
f 121 19 17
f 122 18 20
f 19 20 22
f 19 22 21
f 121 21 19
f 122 20 22
f 21 22 24
f 21 24 23
f 121 23 21
f 122 22 24
f 23 24 26
f 23 26 25
f 121 25 23
f 122 24 26
f 25 26 28
f 25 28 27
f 121 27 25
f 122 26 28
f 27 28 30
f 27 30 29
f 121 29 27
f 122 28 30
f 29 30 32
f 29 32 31
f 121 31 29
f 122 30 32
f 31 32 34
f 31 34 33
f 121 33 31
f 122 32 34
f 33 34 36
f 33 36 35
f 121 35 33
f 122 34 36
f 35 36 38
f 35 38 37
f 121 37 35
f 122 36 38
f 37 38 40
f 37 40 39
f 121 39 37
f 122 38 40
f 39 40 42
f 39 42 41
f 121 41 39
f 122 40 42
f 41 42 44
f 41 44 43
f 121 43 41
f 122 42 44
f 43 44 46
f 43 46 45
f 121 45 43
f 122 44 46
f 45 46 48
f 45 48 47
f 121 47 45
f 122 46 48
f 47 48 50
f 47 50 49
f 121 49 47
f 122 48 50
f 49 50 52
f 49 52 51
f 121 51 49
f 122 50 52
f 51 52 54
f 51 54 53
f 121 53 51
f 122 52 54
f 53 54 56
f 53 56 55
f 121 55 53
f 122 54 56
f 55 56 58
f 55 58 57
f 121 57 55
f 122 56 58
f 57 58 60
f 57 60 59
f 121 59 57
f 122 58 60
f 59 60 62
f 59 62 61
f 121 61 59
f 122 60 62
f 61 62 64
f 61 64 63
f 121 63 61
f 122 62 64
f 63 64 66
f 63 66 65
f 121 65 63
f 122 64 66
f 65 66 68
f 65 68 67
f 121 67 65
f 122 66 68
f 67 68 70
f 67 70 69
f 121 69 67
f 122 68 70
f 69 70 72
f 69 72 71
f 121 71 69
f 122 70 72
f 71 72 74
f 71 74 73
f 121 73 71
f 122 72 74
f 73 74 76
f 73 76 75
f 121 75 73
f 122 74 76
f 75 76 78
f 75 78 77
f 121 77 75
f 122 76 78
f 77 78 80
f 77 80 79
f 121 79 77
f 122 78 80
f 79 80 82
f 79 82 81
f 121 81 79
f 122 80 82
f 81 82 84
f 81 84 83
f 121 83 81
f 122 82 84
f 83 84 86
f 83 86 85
f 121 85 83
f 122 84 86
f 85 86 88
f 85 88 87
f 121 87 85
f 122 86 88
f 87 88 90
f 87 90 89
f 121 89 87
f 122 88 90
f 89 90 92
f 89 92 91
f 121 91 89
f 122 90 92
f 91 92 94
f 91 94 93
f 121 93 91
f 122 92 94
f 93 94 96
f 93 96 95
f 121 95 93
f 122 94 96
f 95 96 98
f 95 98 97
f 121 97 95
f 122 96 98
f 97 98 100
f 97 100 99
f 121 99 97
f 122 98 100
f 99 100 102
f 99 102 101
f 121 101 99
f 122 100 102
f 101 102 104
f 101 104 103
f 121 103 101
f 122 102 104
f 103 104 106
f 103 106 105
f 121 105 103
f 122 104 106
f 105 106 108
f 105 108 107
f 121 107 105
f 122 106 108
f 107 108 110
f 107 110 109
f 121 109 107
f 122 108 110
f 109 110 112
f 109 112 111
f 121 111 109
f 122 110 112
f 111 112 114
f 111 114 113
f 121 113 111
f 122 112 114
f 113 114 116
f 113 116 115
f 121 115 113
f 122 114 116
f 115 116 118
f 115 118 117
f 121 117 115
f 122 116 118
f 117 118 120
f 117 120 119
f 121 119 117
f 122 118 120
f 119 120 2
f 119 2 1
f 121 1 119
f 122 120 2
f 127 128 130
f 127 130 129
f 125 126 124
f 125 124 123
f 123 124 128
f 123 128 127
f 126 125 129
f 126 129 130
f 124 126 130
f 124 130 128
f 125 123 127
f 125 127 129
f 135 136 138
f 135 138 137
f 133 134 132
f 133 132 131
f 131 132 136
f 131 136 135
f 134 133 137
f 134 137 138
f 132 134 138
f 132 138 136
f 133 131 135
f 133 135 137
f 143 144 146
f 143 146 145
f 141 142 140
f 141 140 139
f 139 140 144
f 139 144 143
f 142 141 145
f 142 145 146
f 140 142 146
f 140 146 144
f 141 139 143
f 141 143 145
f 151 152 154
f 151 154 153
f 149 150 148
f 149 148 147
f 147 148 152
f 147 152 151
f 150 149 153
f 150 153 154
f 148 150 154
f 148 154 152
f 149 147 151
f 149 151 153
f 159 160 162
f 159 162 161
f 157 158 156
f 157 156 155
f 155 156 160
f 155 160 159
f 158 157 161
f 158 161 162
f 156 158 162
f 156 162 160
f 157 155 159
f 157 159 161
f 167 168 170
f 167 170 169
f 165 166 164
f 165 164 163
f 163 164 168
f 163 168 167
f 166 165 169
f 166 169 170
f 164 166 170
f 164 170 168
f 165 163 167
f 165 167 169
f 175 176 178
f 175 178 177
f 173 174 172
f 173 172 171
f 171 172 176
f 171 176 175
f 174 173 177
f 174 177 178
f 172 174 178
f 172 178 176
f 173 171 175
f 173 175 177
f 183 184 186
f 183 186 185
f 181 182 180
f 181 180 179
f 179 180 184
f 179 184 183
f 182 181 185
f 182 185 186
f 180 182 186
f 180 186 184
f 181 179 183
f 181 183 185
f 191 192 194
f 191 194 193
f 189 190 188
f 189 188 187
f 187 188 192
f 187 192 191
f 190 189 193
f 190 193 194
f 188 190 194
f 188 194 192
f 189 187 191
f 189 191 193
f 199 200 202
f 199 202 201
f 197 198 196
f 197 196 195
f 195 196 200
f 195 200 199
f 198 197 201
f 198 201 202
f 196 198 202
f 196 202 200
f 197 195 199
f 197 199 201
